<svg xmlns="http://www.w3.org/2000/svg" viewBox="0 0 1958 333.5"><title>ZMTC-Logo-wBox</title><g id="7131d9f1-fdf0-48fe-b777-ffe89bc533de" data-name="Layer 2"><g id="ebde955e-a5b5-47ee-91a4-3b4e79f2725a" data-name="Logo-Green"><g id="2bc6e25f-7890-4177-8984-f84b033329ae" data-name="Creative (Right)"><g id="62d27a50-5088-41c4-9a8d-058bbad5e509" data-name="Box (Rectangle)"><rect id="3c1dbe61-8481-4c40-974c-fd491cec5565" data-name="Background-Rectangle (White)" x="4" y="4" width="1950" height="325.5" fill="#fff"/><g id="1603869d-3ba8-46fc-ab19-0804d2d9fb89" data-name="Box-Rectangle"><path d="M1954,4V329.5H4V4H1954m4-4H0V333.5H1958V0Z" fill="#077448"/></g></g><path id="a53daadd-8150-4ad3-93d3-c26e9d7c32ee" data-name="C-extension" d="M1050.2227,267.2384c22.4032,0,40.5646,18.6973,40.5646,41.7615H1934a41.8487,41.8487,0,0,0-41.719-41.9887Z" fill="#82ae92"/><g id="cb6c612a-3c29-479a-ab6d-82ecdcb8498f" data-name="reative"><path d="M1932,129.3612v54.0752H1818.3924v21.3325a1.7366,1.7366,0,0,0,1.7365,1.7366h79.3766A32.4945,32.4945,0,0,1,1932,239H1820.1289a34.3317,34.3317,0,0,1-34.231-34.2311V129.3612a34.3316,34.3316,0,0,1,34.231-34.231h77.64A34.3317,34.3317,0,0,1,1932,129.3612Zm-32.4945,21.3325V129.3612a1.7366,1.7366,0,0,0-1.7366-1.7365h-77.64a1.7366,1.7366,0,0,0-1.7365,1.7365v21.3325Z" fill="#077448"/><path d="M1773.4988,95.13,1694.1223,239h-29.7665L1585.228,95.13h0a62.88,62.88,0,0,1,55.2924,32.9355L1679.24,199.56l38.9066-71.5269A63.0114,63.0114,0,0,1,1773.4988,95.13Z" fill="#077448"/><path d="M1567.6205,68.3055v.2487h-32.4946V35.811h0A32.4945,32.4945,0,0,1,1567.6205,68.3055ZM1535.1259,95.13h32.4946V239h-32.4946Z" fill="#077448"/><path d="M1459.4744,127.6247v77.1442a1.7365,1.7365,0,0,0,1.7365,1.7366H1483.04A32.4944,32.4944,0,0,1,1515.5342,239h-54.3233a34.14,34.14,0,0,1-34.2311-34.2311V36.6614h0a32.4945,32.4945,0,0,1,32.4945,32.4945V95.13H1483.04a32.4944,32.4944,0,0,1,32.4945,32.4945h-56.06Z" fill="#077448"/><path d="M1400.6939,129.3612V239h-111.871a34.3317,34.3317,0,0,1-34.2311-34.2311V150.6937h113.6076V129.3612a1.7366,1.7366,0,0,0-1.7365-1.7365H1254.5918A32.4945,32.4945,0,0,1,1287.0863,95.13h79.3766A34.3316,34.3316,0,0,1,1400.6939,129.3612Zm-32.4945,54.0752h-81.1131v21.3325a1.7366,1.7366,0,0,0,1.7366,1.7366h79.3765Z" fill="#077448"/><path d="M1228.8022,129.3612v54.0752H1115.1946v21.3325a1.7366,1.7366,0,0,0,1.7366,1.7366h79.3765A32.4944,32.4944,0,0,1,1228.8022,239h-111.871A34.3317,34.3317,0,0,1,1082.7,204.7689V129.3612a34.3317,34.3317,0,0,1,34.2311-34.231h77.64A34.3316,34.3316,0,0,1,1228.8022,129.3612Zm-32.4945,21.3325V129.3612a1.7366,1.7366,0,0,0-1.7365-1.7365h-77.64a1.7366,1.7366,0,0,0-1.7366,1.7365v21.3325Z" fill="#077448"/><path d="M1066.0841,127.6247H986.2113a1.7366,1.7366,0,0,0-1.7366,1.7365V239H951.98V129.3612A34.3317,34.3317,0,0,1,986.2113,95.13H1033.59A32.4945,32.4945,0,0,1,1066.0841,127.6247Z" fill="#077448"/></g><path id="e2980611-39be-4160-9654-7c98892dca81" data-name="C" d="M831.45,66.3285a10.0547,10.0547,0,0,0-10.0547,10.0547v180.85A10.0048,10.0048,0,0,0,831.4,267.2384H1024.144A41.7616,41.7616,0,0,1,1065.9055,309H824.1733A54.98,54.98,0,0,1,769,253.9791V79.0209A54.98,54.98,0,0,1,824.1733,24H942.79a42.3285,42.3285,0,0,1,42.3285,42.3285H831.45Z" fill="#077448"/></g><g id="9aaea43f-7890-4847-918e-7ef2ca34474e" data-name="ZMT"><rect id="12f54aaf-8a68-4e84-9e85-0025d0cf267d" data-name="Background" x="4" y="4" width="745" height="325" fill="#077448"/><path d="M432.31,65.75q19.7982.5751,35.723.5739,14.2031,0,33.4275-.5739l.8608,7.3168-19.6548,5.5951a4.6385,4.6385,0,0,0-3.4432,4.7344q-.2889,9.4688-.2869,23.8153V221.554c0,11.2868.0943,17.9679.2869,25.715q.1416,3.3018,3.8736,4.4475l18.6506,5.3082.5738,10.008c-13.655-.0119-75.03-.0327-86.0795,0l-.7173-10.008,16.4985-5.0213q3.4432-1.0023,3.5867-5.1648c.2869-7.46.43-13.9978.43-25.2846V129.7358q0-7.4583.43-28.55-4.8792,12.34-10.33,25.5369L368.9375,267l-13.0895.0472L301.6129,131.8878q-4.8791-11.6208-10.0426-25.9673.2856,20.3734.2869,26.8281V221.554c0,11.2868.0944,17.8244.287,25.2846q.1414,4.1625,3.73,5.1648l15.7812,5.0213.43,10.008c-11.5859.0145-51.233-.0327-64.5249,0l-.7174-10.008,19.2245-5.3082q3.7287-1.1464,3.8735-4.4475c.19-7.7471.287-14.4282.287-25.715V107.2116q0-14.3446-.287-23.8153a4.6429,4.6429,0,0,0-3.4431-4.7344L247.274,73.0668l-.43-7.3168c15.8756.3834,30.6179.5739,38.5577.5739q16.3551,0,33.4275-.5739l50.07,126.3935q3.2985,8.1776,5.8821,15.4943,2.8682-7.3169,6.0256-15.4943Z" fill="#fff"/><path d="M24,299v-.1568L164.7733,45.3293H64L39,94H24l.0536-60.0045A10.0044,10.0044,0,0,1,34.058,24H181.5833A5.8447,5.8447,0,0,0,176,29.8389V109h22.122L99.16,287.4676H689l25-48.47L729,239v60a10,10,0,0,1-10,10H34A10,10,0,0,1,24,299Z" fill="#fff"/><path d="M534.3956,267.0472,533.38,256.89l32.5018-8.938q5.0757-1.6232,5.2815-6.5.4044-15.2352.4063-39.2053V45.7356H233.2188L206.42,94.0584,192.4016,94V34a10,10,0,0,1,10-10H719a10,10,0,0,1,10,10V94H714L689,45.7356H632.3072V202.2468q0,23.9719.4063,39.2053.2,4.8753,5.4846,6.5l31.8924,8.938.6094,10.1568Z" fill="#fff"/></g></g></g></svg>